<svg width="103.07mm" height="146.52mm" version="1.1" viewBox="0 0 103.07 146.52" xmlns="http://www.w3.org/2000/svg">
 <g transform="translate(-53.466 -48.386)">
  <g transform="matrix(2.863 0 0 2.863 53.466 48.386)">
   <path d="m35 21h-34a1 1 0 1 1 0-2h34a1 1 0 1 1 0 2zm-22.177-2-0.069-2e-3c-0.092-7e-3 -9.214-0.714-10.734-8.235a1 1 0 1 1 1.96-0.396c1.221 6.044 8.833 6.631 8.91 6.636a1 1 0 0 1-0.067 1.997zm-9.823 12a1 1 0 0 1-0.905-1.424c3.166-6.77 11.038-7.721 11.372-7.758a1.0002 1.0002 0 0 1 0.223 1.988c-0.071 8e-3 -7.099 0.876-9.783 6.617a1.002 1.002 0 0 1-0.907 0.577zm19.753-12a1 1 0 0 1-0.065-1.998c0.081-5e-3 8.116-0.617 9.332-6.636a0.995 0.995 0 0 1 1.179-0.782 1 1 0 0 1 0.782 1.178c-1.521 7.525-10.769 8.21-11.162 8.235zm10.248 12a1 1 0 0 1-0.907-0.576c-2.694-5.763-10.124-6.609-10.198-6.617a1 1 0 1 1 0.209-1.989c0.352 0.037 8.634 0.983 11.802 7.758a1.001 1.001 0 0 1-0.906 1.424z" fill="#31373d"/>
   <path d="m24.989 7.766c-0.069-2.626-1.277-4.216-3.095-5.04 0.067-0.226 0.106-0.469 0.106-0.726 0-1.105-0.672-2-1.5-2s-1.5 0.895-1.5 2c0 0.015 3e-3 0.028 3e-3 0.043-0.328-0.026-0.661-0.043-1.003-0.043s-0.675 0.017-1.003 0.043c0-0.015 3e-3 -0.028 3e-3 -0.043 0-1.105-0.671-2-1.5-2s-1.5 0.895-1.5 2c0 0.257 0.04 0.5 0.106 0.726-1.817 0.824-3.025 2.414-3.095 5.04-3.031 1.785-5.011 4.896-5.011 9.234 0 7.159 5.373 16.923 12 16.923 6.628 0 12-9.764 12-16.923 0-4.338-1.98-7.45-5.011-9.234z" fill="#31373d"/>
   <path d="m16.001 34.959c-6.437-0.595-11.501-6.895-11.501-14.581 0-7.685 5.064-10.781 11.5-11.378 0.33-0.03 1-0.046 1 2.294v22.541c0 1.171-0.669 1.156-0.999 1.124zm3.998 0c6.436-0.595 11.501-6.895 11.501-14.581 0-7.685-5.065-10.781-11.5-11.378-0.33-0.03-1-0.046-1 2.294v22.541c0 1.171 0.67 1.156 0.999 1.124z" fill="#ffcb05"/>
   <g fill="#31373d">
    <circle cx="13" cy="15" r="2"/>
    <circle cx="10" cy="22" r="3"/>
    <circle cx="13" cy="29" r="2"/>
    <circle cx="24.5" cy="14.5" r="2.5"/>
    <circle cx="22.5" cy="20.5" r="1.5"/>
    <circle cx="28" cy="23" r="2"/>
    <circle cx="24" cy="29" r="3"/>
   </g>
  </g>
  <text x="105" y="177.19972" fill="#000000" font-family="sans-serif" font-size="29.81px" stroke-width=".26458" style="line-height:1.25" xml:space="preserve"><tspan x="105" y="177.19972" font-family="sniglet" font-size="29.81px" stroke-width=".26458" text-align="center" text-anchor="middle">Squish</tspan></text>
  <text x="105" y="194.49741" fill="#000000" font-family="sans-serif" font-size="10.336px" stroke-width=".26458" style="line-height:1.25" xml:space="preserve"><tspan x="105" y="194.49741" fill="#ffcb05" font-family="sniglet" font-size="10.336px" stroke-width=".26458" text-align="center" text-anchor="middle">BUG TRACKER</tspan></text>
 </g>
</svg>
